<svg width="36" height="36" viewBox="0 0 36 36" fill="none" xmlns="http://www.w3.org/2000/svg">
<path d="M26.394 19.1519C26.9567 19.7146 27.7199 20.0307 28.5158 20.0307C29.3116 20.0307 30.0748 19.7146 30.6375 19.1519C31.2002 18.5892 31.5164 17.8259 31.5164 17.0301C31.5164 16.2343 31.2002 15.4711 30.6375 14.9084L27.9855 12.2579C28.5482 12.8204 29.3114 13.1364 30.107 13.1362C30.501 13.1361 30.8911 13.0585 31.2551 12.9076C31.619 12.7568 31.9497 12.5358 32.2283 12.2571C32.5068 11.9785 32.7277 11.6477 32.8784 11.2837C33.0291 10.9197 33.1066 10.5296 33.1066 10.1356C33.1065 9.74163 33.0288 9.35153 32.878 8.98757C32.7272 8.62361 32.5061 8.29292 32.2275 8.01439L27.9855 3.77239C27.423 3.20966 26.66 2.89345 25.8643 2.89331C25.0686 2.89317 24.3055 3.20911 23.7428 3.77164C23.18 4.33416 22.8638 5.09719 22.8637 5.89286C22.8635 6.68853 23.1795 7.45166 23.742 8.01439L21.0915 5.36239C20.8129 5.08376 20.4821 4.86273 20.118 4.71194C19.754 4.56114 19.3638 4.48353 18.9698 4.48353C18.5757 4.48353 18.1855 4.56114 17.8215 4.71194C17.4574 4.86273 17.1266 5.08376 16.848 5.36239C16.5694 5.64102 16.3483 5.9718 16.1976 6.33586C16.0468 6.69991 15.9691 7.09009 15.9691 7.48414C15.9691 7.87818 16.0468 8.26837 16.1976 8.63242C16.3483 8.99647 16.5694 9.32726 16.848 9.60589L26.394 19.1519Z" stroke="#073247" stroke-width="2" stroke-linecap="round" stroke-linejoin="round"/>
<path d="M3.75 32.2499L5.85 30.1499" stroke="#073247" stroke-width="2" stroke-linecap="round" stroke-linejoin="round"/>
<path d="M30.15 5.85L32.25 3.75" stroke="#073247" stroke-width="2" stroke-linecap="round" stroke-linejoin="round"/>
<path d="M8.0145 32.2276C8.57702 32.7903 9.34005 33.1065 10.1357 33.1067C10.5297 33.1067 10.9198 33.0292 11.2838 32.8785C11.6479 32.7278 11.9786 32.5069 12.2572 32.2283C12.5359 31.9498 12.7569 31.6191 12.9078 31.2552C13.0586 30.8912 13.1363 30.5011 13.1363 30.1071C13.1364 29.7131 13.0589 29.323 12.9082 28.959C12.7575 28.595 12.5365 28.2642 12.258 27.9856L14.9085 30.6376C15.4712 31.2003 16.2344 31.5165 17.0302 31.5165C17.8261 31.5165 18.5893 31.2003 19.152 30.6376C19.7147 30.0749 20.0309 29.3117 20.0309 28.5158C20.0309 27.72 19.7147 26.9568 19.152 26.3941L9.606 16.8481C9.32737 16.5695 8.99658 16.3484 8.63253 16.1976C8.26848 16.0469 7.87829 15.9692 7.48425 15.9692C7.0902 15.9692 6.70002 16.0469 6.33597 16.1976C5.97192 16.3484 5.64113 16.5695 5.3625 16.8481C5.08387 17.1267 4.86284 17.4575 4.71205 17.8216C4.56125 18.1856 4.48364 18.5758 4.48364 18.9698C4.48364 19.3639 4.56125 19.7541 4.71205 20.1181C4.86284 20.4822 5.08387 20.813 5.3625 21.0916L8.0145 23.7421C7.45178 23.1796 6.68864 22.8636 5.89297 22.8638C5.0973 22.8639 4.33427 23.1801 3.77175 23.7428C3.20922 24.3056 2.89328 25.0687 2.89342 25.8644C2.89356 26.66 3.20978 27.4231 3.7725 27.9856L8.0145 32.2276Z" stroke="#073247" stroke-width="2" stroke-linecap="round" stroke-linejoin="round"/>
<path d="M14.4 21.5999L21.6 14.3999" stroke="#073247" stroke-width="2" stroke-linecap="round" stroke-linejoin="round"/>
</svg>
